<?xml version="1.0" encoding="UTF-8" standalone="no"?>
<!DOCTYPE svg PUBLIC "-//W3C//DTD SVG 1.1//EN"
 "http://www.w3.org/Graphics/SVG/1.1/DTD/svg11.dtd">
<!-- Generated by graphviz version 2.40.1 (20161225.0304)
 -->
<!-- Title: %3 Pages: 1 -->
<svg width="1220pt" height="305pt"
 viewBox="0.00 0.00 1219.94 305.00" xmlns="http://www.w3.org/2000/svg" xmlns:xlink="http://www.w3.org/1999/xlink">
<g id="graph0" class="graph" transform="scale(1 1) rotate(0) translate(4 301)">
<title>%3</title>
<polygon fill="#ffffff" stroke="transparent" points="-4,4 -4,-301 1215.936,-301 1215.936,4 -4,4"/>
<!-- 0 -->
<g id="node1" class="node">
<title>0</title>
<ellipse fill="none" stroke="#000000" cx="545.3431" cy="-279" rx="76.0865" ry="18"/>
<text text-anchor="middle" x="545.3431" y="-275.3" font-family="Times,serif" font-size="14.00" fill="#000000">f7&lt;0.0489199981</text>
</g>
<!-- 1 -->
<g id="node2" class="node">
<title>1</title>
<ellipse fill="none" stroke="#000000" cx="460.3431" cy="-192" rx="71.4873" ry="18"/>
<text text-anchor="middle" x="460.3431" y="-188.3" font-family="Times,serif" font-size="14.00" fill="#000000">f20&lt;16.8250008</text>
</g>
<!-- 0&#45;&gt;1 -->
<g id="edge1" class="edge">
<title>0&#45;&gt;1</title>
<path fill="none" stroke="#0000ff" d="M528.1421,-261.3943C515.6992,-248.6586 498.7075,-231.2671 484.8476,-217.081"/>
<polygon fill="#0000ff" stroke="#0000ff" points="487.0105,-214.2865 477.5186,-209.5796 482.0035,-219.1783 487.0105,-214.2865"/>
<text text-anchor="middle" x="543.3431" y="-231.8" font-family="Times,serif" font-size="14.00" fill="#000000">yes, missing</text>
</g>
<!-- 2 -->
<g id="node3" class="node">
<title>2</title>
<ellipse fill="none" stroke="#000000" cx="738.3431" cy="-192" rx="71.4873" ry="18"/>
<text text-anchor="middle" x="738.3431" y="-188.3" font-family="Times,serif" font-size="14.00" fill="#000000">f23&lt;785.799988</text>
</g>
<!-- 0&#45;&gt;2 -->
<g id="edge2" class="edge">
<title>0&#45;&gt;2</title>
<path fill="none" stroke="#ff0000" d="M580.7423,-263.0429C612.5731,-248.6943 659.4711,-227.5537 693.8322,-212.0645"/>
<polygon fill="#ff0000" stroke="#ff0000" points="695.4902,-215.1564 703.1684,-207.856 692.6135,-208.7748 695.4902,-215.1564"/>
<text text-anchor="middle" x="661.8431" y="-231.8" font-family="Times,serif" font-size="14.00" fill="#000000">no</text>
</g>
<!-- 3 -->
<g id="node4" class="node">
<title>3</title>
<ellipse fill="none" stroke="#000000" cx="209.3431" cy="-105" rx="76.0865" ry="18"/>
<text text-anchor="middle" x="209.3431" y="-101.3" font-family="Times,serif" font-size="14.00" fill="#000000">f10&lt;0.591250002</text>
</g>
<!-- 1&#45;&gt;3 -->
<g id="edge3" class="edge">
<title>1&#45;&gt;3</title>
<path fill="none" stroke="#0000ff" d="M418.0482,-177.34C375.0046,-162.4205 308.1945,-139.2632 261.8051,-123.184"/>
<polygon fill="#0000ff" stroke="#0000ff" points="262.8268,-119.8339 252.232,-119.8659 260.5342,-126.4479 262.8268,-119.8339"/>
<text text-anchor="middle" x="385.3431" y="-144.8" font-family="Times,serif" font-size="14.00" fill="#000000">yes, missing</text>
</g>
<!-- 4 -->
<g id="node5" class="node">
<title>4</title>
<ellipse fill="none" stroke="#000000" cx="460.3431" cy="-105" rx="66.8882" ry="18"/>
<text text-anchor="middle" x="460.3431" y="-101.3" font-family="Times,serif" font-size="14.00" fill="#000000">f1&lt;18.9599991</text>
</g>
<!-- 1&#45;&gt;4 -->
<g id="edge4" class="edge">
<title>1&#45;&gt;4</title>
<path fill="none" stroke="#ff0000" d="M460.3431,-173.9735C460.3431,-162.1918 460.3431,-146.5607 460.3431,-133.1581"/>
<polygon fill="#ff0000" stroke="#ff0000" points="463.8432,-133.0033 460.3431,-123.0034 456.8432,-133.0034 463.8432,-133.0033"/>
<text text-anchor="middle" x="467.8431" y="-144.8" font-family="Times,serif" font-size="14.00" fill="#000000">no</text>
</g>
<!-- 5 -->
<g id="node10" class="node">
<title>5</title>
<ellipse fill="none" stroke="#000000" cx="738.3431" cy="-105" rx="71.4873" ry="18"/>
<text text-anchor="middle" x="738.3431" y="-101.3" font-family="Times,serif" font-size="14.00" fill="#000000">f21&lt;23.7399998</text>
</g>
<!-- 2&#45;&gt;5 -->
<g id="edge9" class="edge">
<title>2&#45;&gt;5</title>
<path fill="none" stroke="#0000ff" d="M738.3431,-173.9735C738.3431,-162.1918 738.3431,-146.5607 738.3431,-133.1581"/>
<polygon fill="#0000ff" stroke="#0000ff" points="741.8432,-133.0033 738.3431,-123.0034 734.8432,-133.0034 741.8432,-133.0033"/>
<text text-anchor="middle" x="773.3431" y="-144.8" font-family="Times,serif" font-size="14.00" fill="#000000">yes, missing</text>
</g>
<!-- 6 -->
<g id="node11" class="node">
<title>6</title>
<ellipse fill="none" stroke="#000000" cx="995.3431" cy="-105" rx="66.8882" ry="18"/>
<text text-anchor="middle" x="995.3431" y="-101.3" font-family="Times,serif" font-size="14.00" fill="#000000">f1&lt;14.3000002</text>
</g>
<!-- 2&#45;&gt;6 -->
<g id="edge10" class="edge">
<title>2&#45;&gt;6</title>
<path fill="none" stroke="#ff0000" d="M781.07,-177.5361C825.8035,-162.3928 896.0596,-138.6096 943.8307,-122.4381"/>
<polygon fill="#ff0000" stroke="#ff0000" points="945.0185,-125.7312 953.3682,-119.2094 942.7739,-119.1008 945.0185,-125.7312"/>
<text text-anchor="middle" x="889.8431" y="-144.8" font-family="Times,serif" font-size="14.00" fill="#000000">no</text>
</g>
<!-- 7 -->
<g id="node6" class="node">
<title>7</title>
<ellipse fill="none" stroke="#000000" cx="77.3431" cy="-18" rx="77.1866" ry="18"/>
<text text-anchor="middle" x="77.3431" y="-14.3" font-family="Times,serif" font-size="14.00" fill="#000000">leaf=0.191869915</text>
</g>
<!-- 3&#45;&gt;7 -->
<g id="edge5" class="edge">
<title>3&#45;&gt;7</title>
<path fill="none" stroke="#0000ff" d="M172.1392,-89.293C160.0235,-83.5584 146.7625,-76.5967 135.3431,-69 123.8033,-61.3231 112.1264,-51.5309 102.3046,-42.5832"/>
<polygon fill="#0000ff" stroke="#0000ff" points="104.5642,-39.9046 94.8634,-35.6449 99.7904,-45.0244 104.5642,-39.9046"/>
<text text-anchor="middle" x="170.3431" y="-57.8" font-family="Times,serif" font-size="14.00" fill="#000000">yes, missing</text>
</g>
<!-- 8 -->
<g id="node7" class="node">
<title>8</title>
<ellipse fill="none" stroke="#000000" cx="209.3431" cy="-18" rx="37.0935" ry="18"/>
<text text-anchor="middle" x="209.3431" y="-14.3" font-family="Times,serif" font-size="14.00" fill="#000000">leaf=&#45;0</text>
</g>
<!-- 3&#45;&gt;8 -->
<g id="edge6" class="edge">
<title>3&#45;&gt;8</title>
<path fill="none" stroke="#ff0000" d="M209.3431,-86.9735C209.3431,-75.1918 209.3431,-59.5607 209.3431,-46.1581"/>
<polygon fill="#ff0000" stroke="#ff0000" points="212.8432,-46.0033 209.3431,-36.0034 205.8432,-46.0034 212.8432,-46.0033"/>
<text text-anchor="middle" x="216.8431" y="-57.8" font-family="Times,serif" font-size="14.00" fill="#000000">no</text>
</g>
<!-- 9 -->
<g id="node8" class="node">
<title>9</title>
<ellipse fill="none" stroke="#000000" cx="341.3431" cy="-18" rx="77.1866" ry="18"/>
<text text-anchor="middle" x="341.3431" y="-14.3" font-family="Times,serif" font-size="14.00" fill="#000000">leaf=0.120000005</text>
</g>
<!-- 4&#45;&gt;9 -->
<g id="edge7" class="edge">
<title>4&#45;&gt;9</title>
<path fill="none" stroke="#0000ff" d="M436.1143,-88.111C427.6113,-82.1274 418.0186,-75.3132 409.3431,-69 397.1492,-60.1264 383.8544,-50.21 372.2808,-41.4976"/>
<polygon fill="#0000ff" stroke="#0000ff" points="374.2887,-38.6281 364.1981,-35.3985 370.0723,-44.2158 374.2887,-38.6281"/>
<text text-anchor="middle" x="444.3431" y="-57.8" font-family="Times,serif" font-size="14.00" fill="#000000">yes, missing</text>
</g>
<!-- 10 -->
<g id="node9" class="node">
<title>10</title>
<ellipse fill="none" stroke="#000000" cx="512.3431" cy="-18" rx="76.0865" ry="18"/>
<text text-anchor="middle" x="512.3431" y="-14.3" font-family="Times,serif" font-size="14.00" fill="#000000">leaf=&#45;0.13333334</text>
</g>
<!-- 4&#45;&gt;10 -->
<g id="edge8" class="edge">
<title>4&#45;&gt;10</title>
<path fill="none" stroke="#ff0000" d="M471.1176,-86.9735C478.3687,-74.8418 488.0593,-58.6287 496.2232,-44.9698"/>
<polygon fill="#ff0000" stroke="#ff0000" points="499.4563,-46.3827 501.5825,-36.0034 493.4477,-42.7913 499.4563,-46.3827"/>
<text text-anchor="middle" x="497.8431" y="-57.8" font-family="Times,serif" font-size="14.00" fill="#000000">no</text>
</g>
<!-- 11 -->
<g id="node12" class="node">
<title>11</title>
<ellipse fill="none" stroke="#000000" cx="683.3431" cy="-18" rx="77.1866" ry="18"/>
<text text-anchor="middle" x="683.3431" y="-14.3" font-family="Times,serif" font-size="14.00" fill="#000000">leaf=0.155555561</text>
</g>
<!-- 5&#45;&gt;11 -->
<g id="edge11" class="edge">
<title>5&#45;&gt;11</title>
<path fill="none" stroke="#0000ff" d="M726.9471,-86.9735C719.2039,-74.7252 708.8306,-58.3165 700.1444,-44.5766"/>
<polygon fill="#0000ff" stroke="#0000ff" points="703.0266,-42.5857 694.7246,-36.0034 697.1098,-46.3262 703.0266,-42.5857"/>
<text text-anchor="middle" x="749.3431" y="-57.8" font-family="Times,serif" font-size="14.00" fill="#000000">yes, missing</text>
</g>
<!-- 12 -->
<g id="node13" class="node">
<title>12</title>
<ellipse fill="none" stroke="#000000" cx="859.3431" cy="-18" rx="80.6858" ry="18"/>
<text text-anchor="middle" x="859.3431" y="-14.3" font-family="Times,serif" font-size="14.00" fill="#000000">leaf=&#45;0.100000001</text>
</g>
<!-- 5&#45;&gt;12 -->
<g id="edge12" class="edge">
<title>5&#45;&gt;12</title>
<path fill="none" stroke="#ff0000" d="M762.2488,-87.8116C780.6897,-74.5525 806.3962,-56.0693 826.7261,-41.4519"/>
<polygon fill="#ff0000" stroke="#ff0000" points="828.997,-44.13 835.0729,-35.4505 824.9105,-38.4465 828.997,-44.13"/>
<text text-anchor="middle" x="813.8431" y="-57.8" font-family="Times,serif" font-size="14.00" fill="#000000">no</text>
</g>
<!-- 13 -->
<g id="node14" class="node">
<title>13</title>
<ellipse fill="none" stroke="#000000" cx="995.3431" cy="-18" rx="37.0935" ry="18"/>
<text text-anchor="middle" x="995.3431" y="-14.3" font-family="Times,serif" font-size="14.00" fill="#000000">leaf=&#45;0</text>
</g>
<!-- 6&#45;&gt;13 -->
<g id="edge13" class="edge">
<title>6&#45;&gt;13</title>
<path fill="none" stroke="#0000ff" d="M995.3431,-86.9735C995.3431,-75.1918 995.3431,-59.5607 995.3431,-46.1581"/>
<polygon fill="#0000ff" stroke="#0000ff" points="998.8432,-46.0033 995.3431,-36.0034 991.8432,-46.0034 998.8432,-46.0033"/>
<text text-anchor="middle" x="1030.3431" y="-57.8" font-family="Times,serif" font-size="14.00" fill="#000000">yes, missing</text>
</g>
<!-- 14 -->
<g id="node15" class="node">
<title>14</title>
<ellipse fill="none" stroke="#000000" cx="1131.3431" cy="-18" rx="80.6858" ry="18"/>
<text text-anchor="middle" x="1131.3431" y="-14.3" font-family="Times,serif" font-size="14.00" fill="#000000">leaf=&#45;0.191176474</text>
</g>
<!-- 6&#45;&gt;14 -->
<g id="edge14" class="edge">
<title>6&#45;&gt;14</title>
<path fill="none" stroke="#ff0000" d="M1031.271,-89.6072C1043.676,-83.7539 1057.4397,-76.6393 1069.3431,-69 1081.588,-61.1416 1094.1559,-51.2118 1104.7474,-42.2066"/>
<polygon fill="#ff0000" stroke="#ff0000" points="1107.1615,-44.746 1112.4235,-35.5502 1102.5754,-39.4575 1107.1615,-44.746"/>
<text text-anchor="middle" x="1095.8431" y="-57.8" font-family="Times,serif" font-size="14.00" fill="#000000">no</text>
</g>
</g>
</svg>
